<?xml version="1.0" encoding="iso-8859-1"?>
<!-- Generator: Adobe Illustrator 19.0.0, SVG Export Plug-In . SVG Version: 6.00 Build 0)  -->
<svg version="1.1" id="Layer_1" xmlns="http://www.w3.org/2000/svg" xmlns:xlink="http://www.w3.org/1999/xlink" x="0px" y="0px"
	 viewBox="0 0 511.987 511.987" style="enable-background:new 0 0 511.987 511.987;" fill="#E92763" xml:space="preserve">
<g>
	<g>
		<g>
			<path d="M507.375,313.673c-14.976-20.838-30.131-21.171-68.087-1.195l-73.583,44.988c-10.914,5.803-33.297,7.543-55.006,7.919
				c3.857-8.03,2.133-17.621-5.163-28.501c-13.363-19.951-36.284-31.855-61.321-31.855h-33.289
				c-18.074,0-35.439-5.589-48.896-15.727c-30.618-23.074-78.788,1.86-102.298,16.802v-9.37c0-4.719-3.823-8.533-8.533-8.533H8.533
				c-4.71,0-8.533,3.814-8.533,8.533v204.8c0,4.719,3.823,8.533,8.533,8.533H51.2c4.71,0,8.533-3.814,8.533-8.533v-17.067h110.933
				c17.434,0,35.004-1.323,52.19-3.951l110.618-16.811c4.019-0.043,8.107-0.529,11.733-1.348
				c10.189-1.434,19.925-6.298,28.177-14.08l129.348-100.727c0.068-0.051,0.137-0.111,0.205-0.154
				C512.998,339.051,514.953,324.246,507.375,313.673z M42.667,322.335v153.6v17.067h-25.6V305.268h25.6V322.335z"/>
			<path d="M162.133,107.423v121.045c0,14.114,11.486,25.6,25.6,25.6H230.4h51.2h42.667c14.114,0,25.6-11.486,25.6-25.6V107.423
				c9.916-3.533,17.067-12.911,17.067-24.021v-25.6c0-14.114-11.486-25.6-25.6-25.6H332.8V20.647c0-6.016-2.91-11.691-7.774-15.198
				c-4.873-3.507-11.187-4.471-16.879-2.577l-31.718,10.573C270.711,9.144,263.689,6.49,256,6.49c-7.688,0-14.711,2.654-20.42,6.955
				L203.853,2.872c-5.683-1.894-12.006-0.93-16.879,2.577c-4.864,3.507-7.774,9.182-7.774,15.198v11.554h-8.533
				c-14.114,0-25.6,11.486-25.6,25.6v25.6C145.067,94.512,152.218,103.89,162.133,107.423z M332.8,228.468
				c0,4.71-3.831,8.533-8.533,8.533h-34.133v-128H332.8V228.468z M320.316,78.17c1.656-0.589,3.251-1.331,4.702-2.372
				c4.873-3.507,7.782-9.19,7.782-15.189V49.268h8.533c4.702,0,8.533,3.823,8.533,8.533v25.6c0,4.71-3.831,8.533-8.533,8.533h-51.2
				V72.376l18.014,6.007c1.715,0.572,3.499,0.794,5.274,0.853c0.213,0.009,0.418,0.094,0.631,0.094c0.341,0,0.674-0.137,1.016-0.154
				c1.254-0.068,2.475-0.256,3.686-0.572C319.283,78.469,319.804,78.35,320.316,78.17z M313.54,19.068
				c0.649-0.23,1.186,0,1.502,0.222c0.316,0.23,0.691,0.648,0.691,1.357v20.087v19.874c0,0.7-0.375,1.126-0.691,1.348
				c-0.316,0.23-0.836,0.444-1.502,0.239l-23.415-7.808V41.545c0.009-0.265,0.009-0.512,0.009-0.768l-0.009-0.034
				c0-0.043,0.009-0.077,0.009-0.12c0-2.27-0.239-4.514-0.683-6.707c-0.299-1.536-0.828-2.961-1.34-4.42
				c-0.205-0.589-0.299-1.203-0.538-1.775L313.54,19.068z M239.266,37.347c0.154-0.759,0.401-1.485,0.657-2.219
				c0.094-0.265,0.145-0.563,0.256-0.828c0.802-1.954,1.963-3.78,3.473-5.376c0.034-0.034,0.051-0.085,0.085-0.111
				c3.106-3.226,7.441-5.257,12.262-5.257c4.821,0,9.156,2.031,12.262,5.257c0.034,0.026,0.051,0.077,0.085,0.111
				c1.51,1.596,2.671,3.422,3.473,5.376c0.111,0.265,0.162,0.563,0.256,0.828c0.256,0.734,0.503,1.459,0.657,2.219
				c0.205,1.067,0.333,2.15,0.333,3.277v0.026c0,0.017-0.009,0.034-0.009,0.051c-0.009,1.126-0.137,2.227-0.35,3.294
				c-0.102,0.503-0.29,0.99-0.444,1.485c-0.154,0.512-0.282,1.041-0.478,1.536c-0.333,0.802-0.751,1.57-1.212,2.321
				c-0.085,0.145-0.154,0.316-0.239,0.461c-0.58,0.887-1.237,1.732-1.988,2.517c-3.115,3.294-7.484,5.376-12.348,5.376
				c-1.161,0-2.295-0.119-3.379-0.341c-0.546-0.102-1.05-0.316-1.57-0.469c-0.529-0.171-1.084-0.29-1.587-0.495
				c-0.623-0.265-1.195-0.614-1.783-0.947c-0.35-0.205-0.734-0.358-1.067-0.589c-0.589-0.393-1.118-0.853-1.655-1.323
				c-0.282-0.23-0.589-0.444-0.853-0.7c-0.23-0.23-0.418-0.512-0.648-0.751c-0.631-0.691-1.203-1.425-1.715-2.193
				c-0.137-0.205-0.247-0.435-0.375-0.648c-0.401-0.674-0.777-1.365-1.075-2.082c-0.162-0.393-0.282-0.802-0.418-1.203
				c-0.196-0.58-0.393-1.169-0.529-1.775c-0.102-0.478-0.137-0.981-0.205-1.476c-0.077-0.649-0.188-1.28-0.196-1.946v-0.017
				c0-0.034-0.009-0.077-0.009-0.111C238.933,39.497,239.061,38.414,239.266,37.347z M221.867,237.001h-34.133
				c-4.702,0-8.533-3.823-8.533-8.533V109.001h42.667V237.001z M196.267,40.735V20.647c0-0.708,0.375-1.126,0.691-1.357
				c0.222-0.154,0.546-0.324,0.956-0.324c0.171,0,0.35,0.034,0.546,0.094l25.967,8.661c-0.239,0.572-0.333,1.186-0.538,1.775
				c-0.512,1.459-1.041,2.884-1.34,4.42c-0.444,2.193-0.683,4.437-0.683,6.707c0,0.026,0.009,0.051,0.009,0.077
				c0,0.009-0.009,0.017-0.009,0.034v13.653l-23.407,7.799c-0.674,0.222-1.186,0-1.502-0.23c-0.316-0.222-0.691-0.649-0.691-1.348
				V40.735z M162.133,57.801c0-4.71,3.831-8.533,8.533-8.533h8.533v11.341c0,5.999,2.91,11.682,7.782,15.189
				c1.451,1.05,3.055,1.792,4.71,2.381c0.503,0.171,1.016,0.282,1.527,0.427c1.237,0.316,2.475,0.503,3.746,0.58
				c0.333,0.017,0.649,0.145,0.981,0.145c0.35,0,0.691-0.06,1.041-0.077c0.333-0.017,0.657-0.043,0.99-0.085
				c1.306-0.145,2.611-0.367,3.883-0.794l18.005-5.999v19.558h-51.2c-4.702,0-8.533-3.823-8.533-8.533V57.801z"/>
		</g>
	</g>
</g>
<g>
</g>
<g>
</g>
<g>
</g>
<g>
</g>
<g>
</g>
<g>
</g>
<g>
</g>
<g>
</g>
<g>
</g>
<g>
</g>
<g>
</g>
<g>
</g>
<g>
</g>
<g>
</g>
<g>
</g>
</svg>
